<svg xmlns="http://www.w3.org/2000/svg" viewBox="0 0 676.58 320.58"><defs><style>.cls-1,.cls-2{fill:#fff;}.cls-2{fill-rule:evenodd;}</style></defs><title>Asset 3</title><g id="Layer_2" data-name="Layer 2"><g id="LOGO_VECTOR" data-name="LOGO VECTOR"><g id="UNFORGETTABLE_EXPERIENCE" data-name="UNFORGETTABLE EXPERIENCE"><path class="cls-1" d="M20.88,274.84a1.31,1.31,0,0,1,1.47-1.35,1.34,1.34,0,0,1,1.47,1.35v32.33c0,9.77-5.24,13.41-11.94,13.41S0,316.94,0,307.17V274.84a1.34,1.34,0,0,1,1.47-1.35,1.32,1.32,0,0,1,1.47,1.35v32.33c0,7.09,3.35,10.35,8.94,10.35s9-3.26,9-10.35Z"></path><path class="cls-1" d="M53.16,317.84,35.87,281V318.8a1.35,1.35,0,0,1-1.47,1.4,1.39,1.39,0,0,1-1.47-1.4v-44c0-1,.71-1.35,1.47-1.35,1.06,0,1.88,1.54,2.41,2.62l17,36.49V274.84a1.34,1.34,0,0,1,1.47-1.35,1.32,1.32,0,0,1,1.47,1.35v44a1.36,1.36,0,0,1-1.47,1.4C54.4,320.2,53.69,318.92,53.16,317.84Z"></path><path class="cls-1" d="M66,274.9a1.35,1.35,0,0,1,1.41-1.41H88.33A1.34,1.34,0,0,1,89.56,275c0,.84-.47,1.6-1.23,1.6H69v18.79h9.35c.77,0,1.24.7,1.24,1.53a1.29,1.29,0,0,1-1.24,1.41H69v20.57a1.3,1.3,0,0,1-1.47,1.34A1.34,1.34,0,0,1,66,318.86Z"></path><path class="cls-1" d="M93.39,307.17V286.91c0-9.77,5.11-13.42,11.82-13.42s11.88,3.65,11.88,13.42v20.26c0,9.77-5.24,13.41-11.88,13.41S93.39,316.94,93.39,307.17Zm20.76-20.26c0-7.09-3.36-10.35-8.94-10.35s-8.88,3.26-8.88,10.35v20.26c0,7.09,3.29,10.35,8.88,10.35s8.94-3.26,8.94-10.35Z"></path><path class="cls-1" d="M126,274.84a1.28,1.28,0,0,1,1.29-1.35h10.06c6.64,0,12.4,3,12.4,12.4,0,8.05-4.23,11.37-9.58,12.2l9.41,19.81a1.79,1.79,0,0,1,.17.77,1.54,1.54,0,0,1-1.58,1.59c-.71,0-1.36-1.27-1.83-2.23l-9.23-19.62h-8.17V318.8a1.36,1.36,0,0,1-1.47,1.4,1.39,1.39,0,0,1-1.47-1.4Zm2.94,1.72v18.91h8.41c5.58,0,9.46-2.68,9.46-9.52s-3.88-9.39-9.46-9.39Z"></path><path class="cls-1" d="M167.72,276.56c-5.59,0-8.88,3.26-8.88,10.35v20.26c0,7.09,3.29,10.35,8.88,10.35s8.94-3.26,8.94-10.35V298.6H168a1.5,1.5,0,0,1,0-2.93h10.4a1.34,1.34,0,0,1,1.24,1.47v10c0,9.77-5.23,13.41-11.88,13.41s-11.82-3.64-11.82-13.41V286.91c0-9.77,5.18-13.42,11.76-13.42,7.41,0,11.94,4.67,11.94,10.8,0,1.22-.65,1.66-1.47,1.66a1.33,1.33,0,0,1-1.47-1.34C176,279.25,172.9,276.56,167.72,276.56Z"></path><path class="cls-1" d="M190.77,295.35h9.35c.77,0,1.24.7,1.24,1.53a1.28,1.28,0,0,1-1.24,1.41h-9.35v18.84h19.41c.76,0,1.23.77,1.23,1.6s-.35,1.47-1.23,1.47H189.24a1.34,1.34,0,0,1-1.41-1.4V274.9a1.35,1.35,0,0,1,1.41-1.41h20.94c.88,0,1.23.77,1.23,1.47s-.47,1.6-1.23,1.6H190.77Z"></path><path class="cls-1" d="M238.17,273.49a1.31,1.31,0,0,1,1.24,1.47c0,.77-.36,1.6-1.24,1.6H228.06V318.8a1.39,1.39,0,0,1-1.47,1.4,1.35,1.35,0,0,1-1.47-1.4V276.56H214.89a1.57,1.57,0,0,1,0-3.07Z"></path><path class="cls-1" d="M265.69,273.49a1.31,1.31,0,0,1,1.24,1.47c0,.77-.35,1.6-1.24,1.6H255.58V318.8a1.39,1.39,0,0,1-1.47,1.4,1.36,1.36,0,0,1-1.47-1.4V276.56H242.41a1.57,1.57,0,0,1,0-3.07Z"></path><path class="cls-1" d="M265.87,318.8a.89.89,0,0,1,.06-.39l12.58-44.15a1.63,1.63,0,0,1,1.65-1.15,1.67,1.67,0,0,1,1.65,1.15l12.46,44.15c0,.13.06.19.06.39a1.66,1.66,0,0,1-1.7,1.4,1.14,1.14,0,0,1-1.18-1l-2.88-10.16H271.63l-2.82,10.16a1.24,1.24,0,0,1-1.29,1A1.55,1.55,0,0,1,265.87,318.8Zm21.88-12.66-7.59-27.28-7.76,27.28Z"></path><path class="cls-1" d="M300.33,274.9a1.35,1.35,0,0,1,1.41-1.41h9.18c6.76,0,12.05,1.79,12.05,10.74,0,5.49-2,9.26-5,10.67,3.65,1.66,6.06,4.54,6.06,11.12v1.15c0,9.65-5.06,13-11.58,13H301.74a1.34,1.34,0,0,1-1.41-1.34Zm2.94,18.53h7.94c6,0,8.82-2.17,8.82-8.95,0-6.58-3.76-7.92-9-7.92h-7.71Zm8.94,23.7c5.53,0,8.88-3.06,8.88-10.09V306c0-7-3.35-9.58-8.88-9.58h-8.94v20.76Z"></path><path class="cls-1" d="M333,320.2a1.34,1.34,0,0,1-1.41-1.4v-44a1.34,1.34,0,0,1,1.47-1.35,1.32,1.32,0,0,1,1.47,1.35v42.29h17.35c.76,0,1.11.77,1.11,1.54s-.35,1.53-1.11,1.53Z"></path><path class="cls-1" d="M361.44,295.35h9.35c.76,0,1.23.7,1.23,1.53a1.28,1.28,0,0,1-1.23,1.41h-9.35v18.84h19.4c.77,0,1.24.77,1.24,1.6a1.31,1.31,0,0,1-1.24,1.47H359.91a1.34,1.34,0,0,1-1.41-1.4V274.9a1.34,1.34,0,0,1,1.41-1.41h20.93a1.31,1.31,0,0,1,1.24,1.47c0,.84-.47,1.6-1.24,1.6h-19.4Z"></path><path class="cls-1" d="M402.78,295.35h9.35c.76,0,1.23.7,1.23,1.53a1.28,1.28,0,0,1-1.23,1.41h-9.35v18.84h19.4c.77,0,1.24.77,1.24,1.6a1.31,1.31,0,0,1-1.24,1.47H401.25a1.34,1.34,0,0,1-1.41-1.4V274.9a1.34,1.34,0,0,1,1.41-1.41h20.93a1.31,1.31,0,0,1,1.24,1.47c0,.84-.47,1.6-1.24,1.6h-19.4Z"></path><path class="cls-1" d="M438.41,299.82l-8.7,18.27c-.41.9-.88,2.17-1.76,2.17a1.71,1.71,0,0,1-1.65-1.59,2.53,2.53,0,0,1,.24-.83l10.11-21L426.71,276a2.65,2.65,0,0,1-.35-1.22c0-.83.71-1.34,1.65-1.34s1.41,1.22,1.88,2.24l8.52,18.08L447,275.67c.47-.9,1-2.24,1.88-2.24s1.65.51,1.65,1.34a2.65,2.65,0,0,1-.35,1.22l-10,20.83,10.17,21a2.53,2.53,0,0,1,.24.83,1.67,1.67,0,0,1-1.65,1.59c-.88,0-1.35-1.27-1.76-2.17Z"></path><path class="cls-1" d="M456.76,274.84a1.37,1.37,0,0,1,1.36-1.35H468.7c6.65,0,11.82,3.65,11.82,13.36v.7c0,9.71-5.23,13.42-11.88,13.42H459.7V318.8a1.35,1.35,0,0,1-1.47,1.4,1.39,1.39,0,0,1-1.47-1.4Zm2.94,1.72V298h8.94c5.59,0,8.94-3.32,8.94-10.41v-.71c0-7.09-3.35-10.35-8.94-10.35Z"></path><path class="cls-1" d="M490.23,295.35h9.35c.76,0,1.23.7,1.23,1.53a1.28,1.28,0,0,1-1.23,1.41h-9.35v18.84h19.4c.76,0,1.24.77,1.24,1.6a1.31,1.31,0,0,1-1.24,1.47H488.7a1.34,1.34,0,0,1-1.41-1.4V274.9a1.34,1.34,0,0,1,1.41-1.41h20.93a1.31,1.31,0,0,1,1.24,1.47c0,.84-.48,1.6-1.24,1.6h-19.4Z"></path><path class="cls-1" d="M516.87,274.84a1.28,1.28,0,0,1,1.29-1.35h10.05c6.65,0,12.41,3,12.41,12.4,0,8.05-4.23,11.37-9.58,12.2l9.41,19.81a2,2,0,0,1,.17.77,1.54,1.54,0,0,1-1.59,1.59c-.7,0-1.35-1.27-1.82-2.23L528,298.41h-8.17V318.8a1.36,1.36,0,0,1-1.47,1.4,1.39,1.39,0,0,1-1.47-1.4Zm2.94,1.72v18.91h8.4c5.59,0,9.47-2.68,9.47-9.52s-3.88-9.39-9.47-9.39Z"></path><path class="cls-1" d="M547.21,274.84a1.34,1.34,0,0,1,1.47-1.35,1.32,1.32,0,0,1,1.47,1.35v44a1.36,1.36,0,0,1-1.47,1.4,1.39,1.39,0,0,1-1.47-1.4Z"></path><path class="cls-1" d="M562.38,295.35h9.35c.77,0,1.24.7,1.24,1.53a1.29,1.29,0,0,1-1.24,1.41h-9.35v18.84h19.41c.76,0,1.23.77,1.23,1.6s-.35,1.47-1.23,1.47H560.85a1.34,1.34,0,0,1-1.41-1.4V274.9a1.35,1.35,0,0,1,1.41-1.41h20.94c.88,0,1.23.77,1.23,1.47s-.47,1.6-1.23,1.6H562.38Z"></path><path class="cls-1" d="M609.25,317.84,592,281V318.8a1.35,1.35,0,0,1-1.47,1.4,1.39,1.39,0,0,1-1.47-1.4v-44c0-1,.71-1.35,1.47-1.35,1.06,0,1.88,1.54,2.41,2.62l17,36.49V274.84a1.34,1.34,0,0,1,1.47-1.35,1.32,1.32,0,0,1,1.47,1.35v44a1.36,1.36,0,0,1-1.47,1.4C610.49,320.2,609.78,318.92,609.25,317.84Z"></path><path class="cls-1" d="M633.72,276.56c-5.88,0-9.06,3.26-9.06,10.35v20.26c0,7.15,3.18,10.35,9.23,10.35,7.41,0,8.12-4.92,8.59-8.12a1.27,1.27,0,0,1,1.41-1.34c1,0,1.53.38,1.53,2.17,0,5.31-4.24,10.35-11.88,10.35-6.47,0-11.82-3.64-11.82-13.41V286.91c0-9.77,5.47-13.42,12-13.42,7.58,0,11.7,5,11.7,10.36,0,1.72-.53,2.1-1.47,2.1-1.18,0-1.47-.7-1.47-1.34C642.3,281.67,641,276.56,633.72,276.56Z"></path><path class="cls-1" d="M655.48,295.35h9.35c.76,0,1.23.7,1.23,1.53a1.28,1.28,0,0,1-1.23,1.41h-9.35v18.84h19.4c.77,0,1.24.77,1.24,1.6a1.31,1.31,0,0,1-1.24,1.47H654a1.34,1.34,0,0,1-1.41-1.4V274.9a1.34,1.34,0,0,1,1.41-1.41h20.93a1.31,1.31,0,0,1,1.24,1.47c0,.84-.47,1.6-1.24,1.6h-19.4Z"></path></g><path class="cls-1" d="M46.86,69.2,40.2,120.86H61.33L68,69.2H85.22l-6.66,51.66H91.43l-.23,16H76.49l-4.82,38.69H84.31l-.23,16.22H69.37l-6.66,52.17H45.48l6.66-52.17H31l-6.66,52.17H7.12l6.66-52.17H1.15l.23-16.22h14.7l4.82-38.69H8.27v-16H23L29.63,69.2Zm12.41,67.64H38.13l-4.82,38.69H54.44Z"></path><path class="cls-1" d="M167.75,230.44a28.2,28.2,0,0,1-11,11.73c-6.66,4-14,4.24-17.92,4.24-8.27,0-17.91-2.24-25.5-12.48C106,224,105,211.47,105,203.48V115.12c0-10.48.46-21.21,7.59-31.95C121.8,69.2,136.28,66.7,145,66.7c11.94,0,22.05,4.24,28.48,11.23,6.2,6.74,11.72,18,11.72,34.2v7h-23v-8.74c0-4.24-.46-9.73-4.6-14.23-2.3-2.49-6.2-5-12.4-5a15.79,15.79,0,0,0-12.87,6.24C128,103.14,128,109.63,128,115.87v81.87c0,5.24.23,12.73,3.9,18A15.73,15.73,0,0,0,144.78,222a17.21,17.21,0,0,0,13.32-7c4.14-5.74,4.14-14.22,4.14-20.46V171H142.71V148.57h42.5v95.35H173.72Z"></path><path class="cls-1" d="M198.48,107.89c0-15.48,4.59-25,9.88-31,8-9,18.14-10.23,25.73-10.23,10.33,0,19.52,2.5,26.64,12,5.06,6.74,8.27,16.72,8.27,28.21v9.23a48.84,48.84,0,0,1-2.06,16c-2.07,7.73-3.68,10-5.75,14L224.9,220.21H269v23.71H198.48V221l40.66-81.38a88.15,88.15,0,0,0,5.05-13,78.2,78.2,0,0,0,1.84-15v-3.74c0-5.75-1.38-10-3.45-12.73a11.74,11.74,0,0,0-19.06,2c-2.07,4-2.07,8.74-2.07,14.23v6.74h-23Z"></path><path class="cls-1" d="M334,108.88a23.11,23.11,0,0,0-3-11.48,13.71,13.71,0,0,0-12-6.24,14.3,14.3,0,0,0-11.94,5.74c-3.68,5-3.91,11.23-3.91,17.22v86.12c0,5.74,0,11,3,15.47A13.62,13.62,0,0,0,318,222c5.05,0,10.1-2,12.86-6,1.15-1.74,3.22-5.74,3.22-14.22V195.5h23v7.23c0,17.23-5.52,27.21-9.65,32-4.83,5.74-14.24,11.73-30.09,11.73-15.17,0-23.9-6.73-28.95-13.22-8.27-10.49-8-22.47-8-31.45V111.13c0-11.48,1.38-24.46,11.72-34.2,7.12-7,17.69-10.23,26.18-10.23,9.65,0,20.91,4,27.8,11.23,5.74,6.24,10.34,16.73,10.34,29v12H334Z"></path><path class="cls-1" d="M470.25,69.2h23l31.71,96.34h.92L555.94,69.2h23V243.92h-23V134.59h-1.15l-24.12,78.88H518.49l-24.12-78.88h-1.15V243.92h-23Z"></path><path class="cls-1" d="M598.48,69.2h34.23c9.87,0,22,.5,32.16,11.48,10.56,11.73,11.71,27,11.71,39.93v5c0,9.73-.92,24.21-9.88,35.44-9.41,11.73-21.82,13.73-31.7,13.73H621.45v69.14h-23Zm23,83.11h12.4c4.37,0,10.57-.74,15.4-6.49s4.36-11.73,4.36-18V116.37c0-6,.23-14.48-6.2-20.22-5.29-4.74-11.72-4.49-17.92-4.49h-8Z"></path><polygon class="cls-2" points="367.17 156.71 367.16 243.96 403.33 243.96 403.33 68.63 360.22 156.71 367.17 156.71"></polygon><polygon class="cls-2" points="417.95 68.9 417.95 243.96 453.98 243.96 453.98 156.71 460.93 156.71 417.95 68.9"></polygon><polygon class="cls-2" points="440.98 38.58 440.98 24.58 417.95 24.58 417.95 0 403.33 0 403.33 24.58 380.2 24.58 380.2 38.58 403.33 38.58 403.33 68.63 410.57 53.83 417.95 68.9 417.95 38.58 440.98 38.58"></polygon></g></g></svg>